<?xml version="1.0" encoding="UTF-8"?>
<svg width="512px" height="512px" viewBox="0 0 512 512" version="1.1" xmlns="http://www.w3.org/2000/svg" xmlns:xlink="http://www.w3.org/1999/xlink">
  <title>矩形</title>
  <defs>
    <rect id="path-1" x="1" y="0" width="512" height="512" rx="90"></rect>
    <filter x="-1.4%" y="-1.0%" width="102.7%" height="102.7%" filterUnits="objectBoundingBox" id="filter-2">
      <feOffset dx="0" dy="0" in="SourceAlpha" result="shadowOffsetOuter1"></feOffset>
      <feGaussianBlur stdDeviation="0" in="shadowOffsetOuter1" result="shadowBlurOuter1"></feGaussianBlur>
      <feComposite in="shadowBlurOuter1" in2="SourceAlpha" operator="out" result="shadowBlurOuter1"></feComposite>
      <feColorMatrix values="0 0 0 0 0   0 0 0 0 0   0 0 0 0 0  0 0 0 0.5 0" type="matrix" in="shadowBlurOuter1"></feColorMatrix>
    </filter>
  </defs>
  <g id="矩形" stroke="none" stroke-width="1" fill="none" fill-rule="evenodd">
    <g stroke-linejoin="round">
      <use fill="black" fill-opacity="1" filter="url(#filter-2)" xlink:href="#path-1"></use>
      <rect fill="#F4AF3D" fill-rule="evenodd" x="1" y="0" width="512" height="512" rx="90"></rect>
    </g>
    <g id="编组" transform="translate(0.000000, 82.000000)" stroke="#FFFFFF" stroke-width="30">
      <line x1="227.5" y1="0.5" x2="152.5" y2="0.5" id="直线-3" stroke-linecap="square"></line>
      <line x1="152.5" y1="0.5" x2="152.5" y2="48.5" id="直线-4" stroke-linecap="square"></line>
      <line x1="227.5" y1="0.5" x2="227.5" y2="97.5" id="直线-2" stroke-linecap="square"></line>
      <line x1="241" y1="98" x2="0.5" y2="98.5" id="直线"></line>
    </g>
    <g id="编组备份" transform="translate(393.500000, 131.500000) scale(-1, 1) translate(-393.500000, -131.500000) translate(273.000000, 82.000000)" stroke="#FFFFFF" stroke-width="30">
      <line x1="227.5" y1="0.5" x2="152.5" y2="0.5" id="直线-3" stroke-linecap="square"></line>
      <line x1="152.5" y1="0.5" x2="152.5" y2="48.5" id="直线-4" stroke-linecap="square"></line>
      <line x1="227.5" y1="0.5" x2="227.5" y2="97.5" id="直线-2" stroke-linecap="square"></line>
      <line x1="241" y1="98" x2="0.5" y2="98.5" id="直线"></line>
    </g>
    <line x1="185" y1="400" x2="335" y2="400" id="直线-5" stroke="#FFFFFF" stroke-width="30"></line>
    <rect stroke="#FFFFFF" fill="#FFFFFF" x="95.5" y="225.5" width="59" height="59"></rect>
    <rect stroke="#FFFFFF" fill="#FFFFFF" x="362.5" y="225.5" width="59" height="59"></rect>
    <rect stroke="#FFFFFF" fill="#FFFFFF" x="305.5" y="375.5" width="29" height="11"></rect>
  </g>
</svg>