<?xml version="1.0" encoding="UTF-8"?>
<svg width="15px" height="15px" viewBox="0 0 15 15" version="1.1" xmlns="http://www.w3.org/2000/svg">
    <title>未命名</title>
    <g id="页面-1" stroke="none" stroke-width="1" fill="none" fill-rule="evenodd">
        <g id="javaScript" fill="#9AA7B0" fill-opacity="0.8" fill-rule="nonzero">
            <polygon id="路径" points="6 0 2 4 6 4"></polygon>
            <polygon id="路径" points="7 0 7 5 2 5 2 7 12 7 12 0"></polygon>
        </g>
        <g id="编组" transform="translate(0.000000, 8.000000)" fill-opacity="0.7" fill-rule="nonzero">
            <polygon id="路径" fill="#3D8CF4" points="0 7 15 7 15 0 0 0"></polygon>
            <path d="M4.766,6 L4.766,4.005 L3.898,4.005 L3.898,5.146 L2.505,5.146 L2.505,1.1 L1.546,1.1 L1.546,6 L4.766,6 Z M7.335,6.084 C7.587,6.084 7.818,6.04666667 8.028,5.972 C8.238,5.89733333 8.41883333,5.78416667 8.5705,5.6325 C8.72216667,5.48083333 8.84,5.2895 8.924,5.0585 C9.008,4.8275 9.05,4.55333333 9.05,4.236 L9.05,4.236 L9.05,1.1 L8.14,1.1 L8.14,4.166 C8.14,4.516 8.07816667,4.78083333 7.9545,4.9605 C7.83083333,5.14016667 7.629,5.23 7.349,5.23 C7.05966667,5.23 6.84733333,5.146 6.712,4.978 C6.57666667,4.81 6.509,4.53933333 6.509,4.166 L6.509,4.166 L6.509,1.1 L5.55,1.1 L5.55,4.355 C5.55,4.91966667 5.69583333,5.349 5.9875,5.643 C6.27916667,5.937 6.72833333,6.084 7.335,6.084 Z M10.401,6 L10.737,4.915 L12.2,4.915 L12.55,6 L13.558,6 L11.983,1.1 L11.024,1.1 L9.442,6 L10.401,6 Z M12.011,4.145 L10.961,4.145 L11.451,2.507 L11.514,2.507 L12.011,4.145 Z" id="LUA" fill="#231F20"></path>
        </g>
    </g>
</svg>